Coordinates
version=1
nRows=19
nColumns=27
inDegrees=yes

Units are S.I. units (second, meters, Newtons, ...)
If the header above contains a line with 'inDegrees', this indicates whether rotational values are in degrees (yes) or radians (no).

endheader
time	pelvis_rotation	pelvis_tilt	pelvis_list	pelvis_tx	pelvis_ty	pelvis_tz	hip_flexion_r	hip_adduction_r	hip_rotation_r	knee_angle_r	knee_rotation_r	knee_adduction_r	knee_angle_r_beta	ankle_angle_r	subtalar_angle_r	mtp_angle_r	hip_flexion_l	hip_adduction_l	hip_rotation_l	knee_angle_l	knee_rotation_l	knee_adduction_l	knee_angle_l_beta	ankle_angle_l	subtalar_angle_l	mtp_angle_l
      3.60000000	      3.88243240	    -18.12506422	     -5.24616601	      0.06422636	      0.82583853	     -1.14267994	     29.80202885	    -21.45214320	    -30.61755663	     24.83823577	      0.00000000	      1.16358306	      0.43350899	      0.08637572	      0.00000000	      0.00000000	     40.12580963	    -26.71141343	      0.61759004	     25.33073055	      0.00000000	      5.87258603	      0.44210465	     -0.73351665	      0.00000000	      0.00000000
      3.60500000	      3.85701427	    -18.39202108	     -4.97793118	      0.06315148	      0.82542780	     -1.14289604	     30.50093398	    -21.90370888	    -30.41644911	     25.42431603	      0.00000000	      1.31068916	      0.44373802	      0.22297487	      0.00000000	      0.00000000	     40.48719571	    -26.46783945	      0.51012627	     25.49111411	      0.00000000	      5.81616386	      0.44490387	     -0.77583075	      0.00000000	      0.00000000
      3.61000000	      3.77169349	    -18.68516707	     -4.83841017	      0.06203049	      0.82506334	     -1.14299350	     31.20908436	    -22.17289299	    -30.11672675	     25.91262545	      0.00000000	      1.37146888	      0.45226063	      0.28995429	      0.00000000	      0.00000000	     40.92432132	    -26.36762368	      0.42524530	     25.69031917	      0.00000000	      5.74238663	      0.44838066	     -0.80276964	      0.00000000	      0.00000000
      3.61500000	      3.74969907	    -18.98275680	     -4.65455452	      0.06088551	      0.82463196	     -1.14315189	     31.91305263	    -22.52190532	    -29.90714439	     26.44463260	      0.00000000	      1.48527423	      0.46154591	      0.36541293	      0.00000000	      0.00000000	     41.39229002	    -26.20508595	      0.36176131	     25.91008136	      0.00000000	      5.65106519	      0.45221623	     -0.81892998	      0.00000000	      0.00000000
      3.62000000	      3.64302512	    -19.29166685	     -4.42083504	      0.05960401	      0.82416605	     -1.14333787	     32.74015470	    -22.89898749	    -29.50294598	     27.03745453	      0.00000000	      1.56259171	      0.47189260	      0.46408295	      0.00000000	      0.00000000	     41.81566102	    -26.03789993	      0.16933747	     26.11650332	      0.00000000	      5.55759912	      0.45581897	     -0.84640972	      0.00000000	      0.00000000
      3.62500000	      3.44517020	    -19.56319218	     -4.10889845	      0.05828597	      0.82363840	     -1.14357688	     33.64586526	    -23.33188921	    -28.91556282	     27.69376618	      0.00000000	      1.63037335	      0.48334740	      0.58127111	      0.00000000	      0.00000000	     42.11486206	    -25.86055910	     -0.23407057	     26.29860446	      0.00000000	      5.42282162	      0.45899724	     -0.85681406	      0.00000000	      0.00000000
      3.63000000	      3.39590929	    -19.92771851	     -3.89797903	      0.05691675	      0.82313706	     -1.14376000	     34.50155804	    -23.69569283	    -28.57775618	     28.27170191	      0.00000000	      1.71946867	      0.49343428	      0.64021217	      0.00000000	      0.00000000	     42.66033255	    -25.69170067	     -0.32863253	     26.54205153	      0.00000000	      5.33063526	      0.46324619	     -0.89405611	      0.00000000	      0.00000000
      3.63500000	      2.14295324	    -20.23585991	     -3.09734832	      0.05470086	      0.82233848	     -1.14443278	     36.53088709	    -24.19175595	    -25.70343135	     29.30117321	      0.00000000	      1.15551221	      0.51140195	      0.80936535	      0.00000000	      0.00000000	     42.34401405	    -25.61306330	     -2.58616619	     26.67832313	      0.00000000	      4.75643999	      0.46562458	     -0.84901525	      0.00000000	      0.00000000
      3.64000000	      3.13864219	    -20.55495992	     -3.30852578	      0.05407021	      0.82195774	     -1.14422319	     36.35087779	    -24.53809843	    -27.53831647	     29.55982652	      0.00000000	      1.88878189	      0.51591630	      0.81884908	      0.00000000	      0.00000000	     43.49268379	    -25.32625108	     -0.95115055	     26.99299433	      0.00000000	      5.03083233	      0.47111663	     -0.94586169	      0.00000000	      0.00000000
      3.64500000	      2.43290225	    -20.78844809	     -2.76470998	      0.05237396	      0.82129183	     -1.14464443	     37.75326731	    -24.95651266	    -25.87622804	     30.35204221	      0.00000000	      1.72029552	      0.52974307	      0.90057538	      0.00000000	      0.00000000	     43.41222152	    -25.22679764	     -2.26435451	     27.11398106	      0.00000000	      4.73296696	      0.47322824	     -0.97938197	      0.00000000	      0.00000000
      3.65000000	      2.78562753	    -21.14895112	     -2.56583868	      0.05108186	      0.82058339	     -1.14479482	     38.37973173	    -25.48023649	    -26.20405664	     30.96411510	      0.00000000	      2.06409033	      0.54042576	      1.02199862	      0.00000000	      0.00000000	     44.19863089	    -24.92092400	     -1.89050209	     27.45464464	      0.00000000	      4.63685027	      0.47917394	     -0.95257838	      0.00000000	      0.00000000
      3.65500000	      2.74698618	    -21.48741880	     -2.34968863	      0.04962520	      0.81989734	     -1.14491135	     39.25839501	    -25.83149191	    -25.84914250	     31.56303356	      0.00000000	      2.19130704	      0.55087886	      1.08962360	      0.00000000	      0.00000000	     44.75932539	    -24.79217412	     -2.06700765	     27.75046245	      0.00000000	      4.44951900	      0.48433694	     -0.98541739	      0.00000000	      0.00000000
      3.66000000	      2.60070141	    -21.78663026	     -2.01308284	      0.04812063	      0.81913500	     -1.14512743	     40.25962842	    -26.25706377	    -25.23627220	     32.24519881	      0.00000000	      2.30559348	      0.56278489	      1.16773870	      0.00000000	      0.00000000	     45.16768446	    -24.63364527	     -2.51280423	     28.02270261	      0.00000000	      4.22589739	      0.48908843	     -0.99324587	      0.00000000	      0.00000000
      3.66500000	      2.22811637	    -21.99217003	     -1.58589298	      0.04664594	      0.81834336	     -1.14539109	     41.36600902	    -26.64777598	    -24.19415543	     32.94924112	      0.00000000	      2.33552937	      0.57507274	      1.25073224	      0.00000000	      0.00000000	     45.29891186	    -24.52823414	     -3.39507869	     28.23828059	      0.00000000	      3.88652855	      0.49285097	     -0.98505678	      0.00000000	      0.00000000
      3.67000000	      2.47999491	    -22.29171856	     -1.38711433	      0.04534363	      0.81752324	     -1.14547018	     42.01083177	    -27.11347405	    -24.33368811	     33.53972368	      0.00000000	      2.64331401	      0.58537861	      1.35787888	      0.00000000	      0.00000000	     45.98708627	    -24.30820391	     -3.23437935	     28.59500156	      0.00000000	      3.70397963	      0.49907693	     -0.98013191	      0.00000000	      0.00000000
      3.67500000	      1.31818840	    -22.61270214	     -0.42401819	      0.04302581	      0.81629672	     -1.14606644	     44.28689848	    -27.58137170	    -21.40167403	     34.67443397	      0.00000000	      2.25626940	      0.60518304	      1.49153930	      0.00000000	      0.00000000	     45.68085967	    -24.18231599	     -5.54722575	     28.77721797	      0.00000000	      3.14901953	      0.50225720	     -0.90570395	      0.00000000	      0.00000000
      3.68000000	      2.44535805	    -22.70288983	     -0.78790165	      0.04276539	      0.81576544	     -1.14573318	     43.60005799	    -27.96769532	    -23.60886663	     34.80898533	      0.00000000	      3.07255658	      0.60753140	      1.55475015	      0.00000000	      0.00000000	     46.77358967	    -24.01376752	     -3.92355948	     29.21608455	      0.00000000	      3.12366230	      0.50991687	     -0.93855824	      0.00000000	      0.00000000
      3.68500000	      2.53750897	    -22.93353809	     -0.60204854	      0.04151075	      0.81484269	     -1.14579262	     44.28053373	    -28.34003189	    -23.49758772	     35.38639703	      0.00000000	      3.32664660	      0.61760914	      1.65164970	      0.00000000	      0.00000000	     47.34084225	    -23.91802337	     -4.05099026	     29.61828444	      0.00000000	      2.81960368	      0.51693658	     -0.91289167	      0.00000000	      0.00000000
      3.69000000	      2.46938846	    -23.04397776	     -0.16990045	      0.04032479	      0.81379861	     -1.14598532	     45.12145260	    -28.86545370	    -22.96199264	     36.10437329	      0.00000000	      3.58275980	      0.63014019	      1.77893740	      0.00000000	      0.00000000	     47.53743691	    -23.72394970	     -4.63383219	     29.90458207	      0.00000000	      2.46413606	      0.52193342	     -0.85211418	      0.00000000	      0.00000000
